<?xml version="1.0" standalone="no"?>
<!DOCTYPE svg PUBLIC "-//W3C//DTD SVG 20010904//EN"
 "http://www.w3.org/TR/2001/REC-SVG-20010904/DTD/svg10.dtd">
<svg version="1.0" xmlns="http://www.w3.org/2000/svg"
 width="512.000000pt" height="512.000000pt" viewBox="0 0 512.000000 512.000000"
 preserveAspectRatio="xMidYMid meet">
<metadata>
Created by potrace 1.16, written by Peter Selinger 2001-2019
</metadata>
<g transform="translate(0.000000,512.000000) scale(0.100000,-0.100000)"
fill="#000000" stroke="none">
<path d="M0 2560 l0 -2560 2560 0 2560 0 0 2560 0 2560 -2560 0 -2560 0 0
-2560z m3065 1971 c187 -44 352 -115 513 -220 160 -105 381 -306 367 -334 -4
-6 5 0 18 15 14 15 27 25 29 23 1 -2 59 37 128 86 69 49 130 89 136 89 34 0
38 -30 41 -292 1 -144 -1 -258 -5 -254 -4 4 -9 123 -12 264 -5 249 -6 257 -25
256 -16 0 -229 -139 -269 -175 -5 -4 20 -43 54 -86 203 -252 323 -522 376
-851 10 -59 19 -200 23 -363 l6 -266 130 104 c72 58 158 129 192 159 l63 55 0
143 c0 140 -1 144 -22 151 -15 4 -18 8 -10 12 7 3 22 -3 33 -13 17 -15 19 -31
19 -151 0 -74 -4 -142 -9 -152 -5 -9 -98 -89 -205 -177 l-195 -159 -1 -148 0
-149 33 20 c160 98 255 152 268 152 28 0 61 -46 66 -93 10 -85 -38 -175 -111
-208 -41 -19 -41 -19 -11 -20 38 -2 -63 -17 -125 -18 l-46 -1 4 33 4 33 61 0
c36 -1 66 -6 72 -13 17 -21 85 25 112 76 40 77 25 191 -26 191 -10 0 -82 -39
-160 -87 l-142 -88 3 -82 3 -83 -29 0 c-24 0 -27 2 -16 15 13 16 11 187 -2
201 -16 15 -19 -5 -7 -44 15 -52 5 -120 -24 -154 -18 -22 -33 -27 -87 -33
l-65 -6 0 28 c0 15 -4 40 -8 55 -6 23 -4 25 13 21 23 -6 95 34 130 73 19 21
14 19 -19 -8 -45 -38 -96 -57 -112 -41 -5 5 -12 36 -15 69 -6 52 -3 66 20 109
35 68 46 80 86 98 19 9 51 30 70 47 38 35 24 31 -27 -6 -17 -13 -40 -24 -49
-24 -10 0 -33 -14 -51 -32 l-33 -32 0 226 0 226 -25 30 c-24 28 -32 82 -12 82
4 0 7 30 5 68 -3 59 -5 67 -23 67 -18 0 -20 -8 -23 -67 -2 -38 1 -68 6 -68 5
0 7 -13 4 -29 -3 -23 2 -36 22 -54 l26 -24 0 -251 c0 -156 -4 -253 -10 -257
-6 -4 -10 41 -10 129 0 91 -4 137 -12 142 -8 5 -10 -36 -5 -167 l5 -174 -24
85 c-13 47 -44 125 -68 173 -38 75 -43 92 -35 119 10 36 -2 101 -32 168 -11
25 -24 83 -29 130 -13 115 -32 173 -82 250 -98 150 -268 281 -469 363 -80 32
-106 47 -118 70 -42 76 -43 77 -149 77 -53 0 -114 -4 -134 -9 -38 -9 -38 -9
-49 31 -8 31 -7 53 7 106 17 65 17 72 -4 197 -31 188 -37 255 -23 255 6 0 11
8 11 18 0 25 -66 132 -98 160 l-27 22 29 -10 c16 -6 31 -8 34 -6 6 6 -59 46
-75 46 -6 0 -32 18 -57 39 -65 56 -143 84 -241 85 -97 0 -167 -21 -247 -76
-43 -30 -62 -38 -80 -33 -22 7 -22 6 -4 -7 18 -14 17 -16 -12 -36 -33 -24 -72
-29 -72 -9 -1 6 -10 1 -20 -12 -47 -55 -14 -162 65 -211 19 -12 35 -24 35 -27
0 -8 -51 26 -83 56 -44 40 -60 78 -54 128 5 44 4 44 -16 26 -64 -58 -62 -185
5 -240 19 -15 23 -28 23 -78 0 -48 5 -68 27 -100 15 -22 30 -57 33 -77 6 -34
4 -40 -31 -72 l-38 -35 25 -52 c29 -63 69 -105 108 -114 23 -5 31 -15 45 -57
9 -28 16 -57 16 -65 0 -9 18 -48 40 -88 22 -40 40 -79 40 -87 0 -22 -59 -72
-135 -113 -181 -97 -309 -204 -363 -303 l-29 -53 -12 48 c-55 223 -94 296
-173 327 -83 34 -324 88 -413 93 -82 5 -93 3 -117 -16 -29 -23 -50 -80 -43
-115 2 -12 9 -76 16 -144 12 -121 12 -124 -11 -164 -21 -38 -22 -49 -17 -165
4 -113 3 -124 -12 -117 -71 30 -120 -3 -122 -83 -2 -47 -2 -47 -9 -13 l-7 35
-2 -41 c-2 -57 24 -136 53 -163 25 -24 85 -33 117 -17 15 6 17 -8 23 -131 11
-222 45 -593 61 -684 20 -108 57 -184 98 -205 l31 -17 -31 -27 c-35 -31 -70
-31 -99 1 -22 25 -104 27 -104 3 0 -8 -5 -12 -11 -9 -5 4 -9 14 -7 23 2 13 12
16 41 14 43 -4 44 0 17 38 -11 15 -33 56 -49 90 -28 59 -30 68 -24 149 9 130
8 137 -36 261 l-42 115 18 80 c25 111 24 228 -1 252 -19 17 -19 17 -5 -1 17
-23 17 -125 -1 -211 -15 -74 -32 -107 -25 -50 3 22 8 88 11 146 7 100 6 107
-15 128 -11 11 -30 21 -42 21 -16 0 -19 4 -15 17 4 9 2 31 -5 50 -10 30 -14
33 -50 33 -39 0 -39 0 -39 -39 0 -22 5 -43 10 -46 13 -8 3 -25 -16 -25 -10 0
-14 14 -14 54 l0 53 -39 7 c-39 6 -40 7 -43 53 -3 44 -5 48 -35 57 -35 9 -42
23 -18 32 8 3 22 -1 30 -10 9 -9 21 -16 26 -16 5 0 9 -20 9 -45 0 -52 0 -52
91 -57 l66 -4 -27 61 c-15 33 -40 97 -55 143 -16 49 -34 86 -45 92 -27 15
-134 151 -175 224 -66 118 -88 197 -88 321 -1 91 3 120 21 166 25 63 51 92 75
83 24 -9 29 -34 12 -60 -18 -28 -40 -31 -53 -8 -7 12 -13 0 -27 -49 -27 -102
-18 -238 24 -342 37 -91 122 -223 177 -275 l37 -35 -6 31 c-68 362 10 650 261
968 249 316 748 668 1137 803 89 30 279 78 370 92 39 6 81 13 95 15 14 3 113
3 220 1 154 -2 214 -7 285 -24z m-386 -92 c27 -11 58 -30 67 -40 18 -20 17
-20 -10 -9 -48 18 -40 4 16 -28 53 -30 162 -122 121 -103 -36 18 -85 13 -177
-19 l-89 -30 34 33 c19 18 43 37 54 41 13 6 16 10 7 13 -10 4 -10 8 0 21 8 12
8 14 0 6 -8 -6 -36 -7 -80 -3 -94 11 -164 11 -158 0 4 -5 -3 -7 -14 -4 -31 8
-102 -23 -139 -61 -18 -18 -38 -53 -46 -77 -8 -24 -14 -36 -14 -25 -2 42 24
98 60 131 48 43 120 65 238 72 102 6 104 19 4 29 -83 9 -162 -10 -230 -56 -70
-46 -96 -87 -103 -160 l-5 -55 -18 32 c-31 59 -24 81 52 154 40 38 92 77 123
91 29 14 64 29 78 36 23 10 22 10 -10 6 -19 -3 -52 -12 -72 -20 -21 -8 -38
-11 -38 -8 0 3 17 12 38 21 108 47 221 51 311 12z m1338 -276 c-2 -32 -3 -8
-3 52 0 61 1 87 3 58 2 -29 2 -78 0 -110z m-1342 138 c-6 -5 -48 -14 -95 -21
-96 -13 -146 -35 -184 -80 -33 -40 -34 -26 -1 23 25 36 63 62 115 78 36 11
176 11 165 0z m-281 -30 c-16 -16 -31 -27 -34 -24 -5 5 46 53 57 53 4 0 -7
-13 -23 -29z m119 -80 c-21 -26 -44 -57 -51 -67 -7 -11 -5 -4 3 13 14 30 72
103 81 103 3 0 -13 -22 -33 -49z m-1248 11 c6 -17 -18 -42 -41 -42 -6 0 -14
-8 -17 -17 -2 -10 -75 -102 -161 -206 -111 -133 -156 -194 -156 -213 0 -30
-41 -74 -70 -74 -26 0 -70 43 -70 68 0 11 10 32 21 47 18 21 28 26 53 22 17
-2 38 -7 47 -11 12 -5 45 27 136 136 175 211 189 230 191 263 3 49 51 69 67
27z m1079 -9 c-7 -21 -14 -56 -15 -78 -1 -29 -3 -33 -6 -15 -6 30 15 130 27
130 4 0 2 -17 -6 -37z m394 15 c-17 -25 -84 -68 -108 -68 -8 0 3 9 26 20 23
12 52 32 64 45 29 31 37 32 18 3z m131 -59 c27 -10 51 -34 51 -53 0 -4 -18 6
-41 21 -28 18 -53 26 -84 26 -24 0 -42 4 -39 9 7 12 75 10 113 -3z m-262 -15
c-3 -3 -12 -4 -19 -1 -8 3 -5 6 6 6 11 1 17 -2 13 -5z m257 -43 c30 -30 17
-30 -44 2 l-55 29 39 -6 c22 -3 49 -14 60 -25z m-293 -4 c25 -19 39 -52 39
-91 0 -53 14 -79 59 -110 23 -16 41 -34 41 -41 0 -7 -33 -27 -74 -44 -75 -31
-130 -39 -141 -21 -4 6 12 10 42 10 44 1 47 2 29 15 -11 8 -29 15 -41 15 -24
0 -181 -74 -207 -97 -15 -14 -21 -13 -60 0 -24 9 -55 18 -69 21 -16 4 -29 15
-33 28 -11 43 -19 156 -12 190 l6 34 68 0 c64 -1 73 2 128 38 85 57 188 81
225 53z m254 -22 l30 -25 -37 21 c-21 11 -38 23 -38 25 0 10 17 2 45 -21z
m-47 -21 c18 -7 31 -18 27 -24 -3 -5 2 -10 11 -10 10 0 15 -2 13 -4 -2 -2 -31
-1 -64 4 -60 7 -60 7 -15 10 l45 2 -50 13 c-27 7 -61 18 -75 24 -38 17 65 3
108 -15z m1397 -24 c4 -6 15 -8 26 -5 22 7 27 -13 5 -21 -17 -6 -56 12 -56 26
0 13 17 13 25 0z m-205 -14 c0 -3 -4 -8 -10 -11 -5 -3 -10 -1 -10 4 0 6 5 11
10 11 6 0 10 -2 10 -4z m210 -71 c0 -8 -7 -15 -15 -15 -9 0 -12 6 -9 15 4 8
10 15 15 15 5 0 9 -7 9 -15z m-1256 -21 c9 -4 22 -16 28 -28 11 -21 10 -21
-10 -3 -16 15 -24 16 -42 7 -39 -21 -52 -90 -24 -121 13 -15 14 -24 6 -49 -13
-35 -1 -40 36 -14 28 19 29 60 2 76 -26 17 -26 32 1 25 13 -3 19 -1 16 6 -2 7
-16 12 -30 12 -31 -1 -35 15 -9 38 17 16 20 16 39 -6 11 -12 26 -32 32 -44 28
-55 -6 -164 -58 -186 -37 -16 -27 -42 13 -35 29 6 31 1 76 -177 17 -71 19 -74
14 -27 -2 29 -7 59 -10 67 -11 28 14 15 67 -33 l52 -48 -36 -60 c-21 -33 -53
-99 -72 -148 -43 -110 -63 -142 -123 -198 -63 -59 -204 -114 -189 -74 7 18
-35 107 -78 166 l-34 47 25 14 c36 19 112 104 181 202 31 45 61 84 65 85 13 6
9 48 -21 212 -23 125 -26 158 -16 170 7 8 17 31 24 50 6 19 21 44 33 57 24 26
21 25 42 17z m-94 -48 c0 -4 -68 -46 -76 -46 -16 0 1 20 29 34 32 16 47 19 47
12z m1636 -4 c29 -19 34 -55 34 -272 0 -145 -3 -219 -10 -215 -6 4 -10 93 -10
235 0 222 -1 230 -21 240 -11 7 -33 9 -47 6 -20 -5 -23 -4 -12 4 18 11 50 13
66 2z m-1698 -123 c28 -93 -15 -223 -102 -308 l-46 -45 -22 21 c-39 35 -85 53
-138 53 l-50 0 32 29 c27 24 30 31 20 44 -11 12 -7 16 22 21 42 8 75 34 100
77 l18 34 -25 -30 -24 -29 -1 45 c-1 43 1 46 45 73 55 33 134 66 148 62 5 -1
16 -22 23 -47z m-277 -32 c21 4 27 0 32 -19 20 -71 -5 -108 -74 -111 -42 -2
-45 0 -76 47 -18 26 -33 55 -33 63 0 8 19 23 42 33 42 19 43 19 63 0 13 -12
29 -17 46 -13z m-305 -61 c12 -29 22 -40 27 -33 4 7 5 -1 1 -17 -5 -20 -4 -27
4 -22 8 5 10 2 6 -8 -3 -9 -11 -16 -16 -16 -12 0 -59 36 -60 47 -1 4 -10 17
-20 27 -16 18 -27 48 -11 33 3 -4 12 2 20 13 21 29 29 25 49 -24z m64 24 c0
-6 -8 -14 -17 -17 -10 -4 -22 -11 -26 -17 -5 -7 -7 -3 -5 9 2 11 8 23 13 27
15 11 35 10 35 -2z m94 -58 c25 -40 45 -60 78 -77 26 -13 27 -29 2 -33 -10 -2
-36 -17 -57 -34 -62 -49 -72 -39 -75 80 -2 86 0 102 13 102 8 0 25 -17 39 -38z
m2316 -361 c0 -209 -4 -332 -10 -336 -7 -4 -10 108 -10 329 0 217 4 336 10
336 6 0 10 -116 10 -329z m-1406 267 c7 -13 19 -39 26 -58 12 -34 10 -39 -49
-145 -102 -183 -148 -326 -172 -529 -11 -95 -7 -250 7 -306 4 -14 4 -22 0 -19
-16 15 -35 171 -36 286 0 128 21 328 46 428 8 33 40 114 71 179 32 67 57 134
57 152 1 41 28 47 50 12z m-985 -30 c0 -18 -3 -26 -6 -18 -3 8 -10 23 -15 33
-6 12 -5 17 7 17 10 0 15 -10 14 -32z m197 -106 c-16 -2 -32 0 -37 5 -5 5 7 7
29 4 34 -5 35 -6 8 -9z m1028 -27 c143 -69 275 -172 345 -270 l34 -47 -53 36
c-29 20 -55 36 -59 36 -4 0 -23 20 -41 45 -59 79 -100 93 -205 68 -58 -13
-165 -57 -165 -67 0 -3 20 4 43 14 24 11 74 27 111 35 76 18 77 17 172 -55
l60 -46 -50 -12 c-82 -20 -138 -52 -206 -121 -107 -109 -170 -270 -173 -442
-1 -48 -5 -85 -8 -81 -9 10 -49 121 -47 130 1 4 -2 30 -7 57 -8 44 -9 47 -17
25 -4 -14 -6 24 -4 90 4 122 31 252 67 323 11 21 16 36 10 32 -6 -3 -23 -30
-38 -58 -68 -135 -88 -257 -73 -447 5 -69 17 -149 25 -178 19 -63 13 -76 -45
-93 -28 -9 -37 -16 -32 -27 3 -9 1 -13 -5 -9 -6 4 -13 16 -16 28 -4 15 -2 19
9 15 16 -6 68 17 79 34 3 5 -4 40 -16 77 -27 87 -37 311 -20 433 23 151 91
346 169 478 23 40 28 43 55 38 17 -3 62 -22 101 -41z m-927 0 c13 -26 14 -42
7 -63 -14 -39 -47 -40 -85 -3 -39 39 -99 45 -99 9 0 -21 0 -21 -15 -2 -8 10
-15 29 -15 41 0 19 7 22 63 28 34 4 71 11 82 16 35 14 45 10 62 -26z m1111
-167 c7 -6 23 -25 34 -41 18 -25 12 -23 -38 18 -32 26 -61 50 -64 52 -10 9 55
-19 68 -29z m-2225 -32 c197 -50 222 -63 252 -128 29 -63 95 -289 88 -301 -10
-17 -22 11 -57 132 -48 166 -61 191 -116 217 -54 26 -264 80 -347 89 -97 11
-97 12 -7 -249 42 -124 80 -230 84 -237 5 -6 56 -17 116 -23 100 -11 105 -12
62 -18 -25 -4 -99 -5 -163 -1 -96 5 -118 9 -125 24 -6 9 -27 119 -47 243 -31
186 -35 230 -25 246 10 17 10 20 -3 20 -20 0 -35 -32 -35 -77 0 -61 78 -729
94 -813 29 -142 136 -644 147 -683 6 -21 8 -41 6 -44 -6 -5 -82 308 -152 627
-48 212 -78 397 -114 680 -38 307 -38 275 -1 311 l31 32 87 -6 c48 -3 149 -22
225 -41z m792 -132 c-33 -128 -67 -349 -73 -474 l-5 -105 -14 40 c-8 22 -28
90 -43 150 -16 61 -29 103 -30 95 0 -23 27 -170 44 -235 28 -108 2 -69 -46 70
-24 68 -36 246 -23 342 8 53 9 55 16 28 7 -25 8 -23 6 16 -1 29 3 51 13 62 15
15 172 108 176 104 1 -1 -9 -43 -21 -93z m1553 46 c58 -35 99 -161 158 -477
15 -83 31 -150 35 -147 10 6 29 -53 29 -90 0 -17 -8 -47 -19 -66 -17 -32 -24
-36 -111 -56 -97 -23 -245 -90 -357 -163 -49 -32 -63 -37 -67 -24 -3 8 -4 19
0 24 3 5 0 9 -6 9 -7 0 -10 7 -6 15 3 8 2 15 -2 15 -7 0 -42 63 -42 75 0 3 7
5 15 5 14 0 19 -12 16 -32 0 -5 4 -8 10 -8 5 0 7 -5 3 -12 -4 -6 -3 -8 3 -5
14 9 55 -23 49 -38 -2 -7 30 12 72 42 42 31 101 69 130 85 56 32 66 51 11 23
-81 -42 -249 -81 -249 -58 0 6 12 28 27 49 44 65 183 355 183 383 0 2 -45 -40
-101 -94 -55 -53 -102 -95 -105 -92 -3 3 3 22 14 44 19 36 112 286 112 299 0
10 -104 -135 -134 -187 -33 -58 -77 -169 -71 -179 3 -5 -1 -10 -7 -13 -9 -3
-8 -9 5 -19 14 -11 19 -32 23 -98 3 -51 1 -81 -5 -75 -5 6 -11 41 -13 79 -2
55 -8 74 -25 92 -59 59 -35 332 43 486 49 97 148 183 247 213 60 19 97 18 135
-5z m992 -7 c0 -5 -5 -15 -10 -23 -8 -12 -10 -11 -10 8 0 12 5 22 10 22 6 0
10 -3 10 -7z m-2474 -125 c-15 -46 -33 -94 -41 -108 -19 -32 -19 -20 0 22 8
18 24 66 36 106 12 40 24 70 26 68 3 -2 -7 -42 -21 -88z m685 74 c-5 -10 -18
-25 -27 -33 -11 -9 -9 -2 6 19 26 35 36 42 21 14z m-606 -93 c43 -247 60 -836
24 -813 -5 3 -9 40 -10 82 0 42 -4 97 -8 122 l-7 45 -7 -42 c-7 -40 -22 -62
-34 -49 -3 3 -19 70 -35 148 -22 107 -30 173 -31 264 -2 113 0 124 24 170 15
27 35 75 45 106 10 32 19 56 21 54 2 -2 10 -41 18 -87z m527 34 c-91 -109
-154 -150 -244 -159 -74 -7 -113 7 -147 55 -29 40 -26 49 4 13 14 -16 41 -37
61 -47 32 -15 44 -16 90 -6 64 15 152 71 219 140 27 28 51 51 53 51 2 0 -14
-21 -36 -47z m-866 22 c-18 -48 -28 -161 -24 -269 5 -119 10 -138 63 -271 7
-17 5 -17 -20 5 -38 35 -101 129 -124 187 -28 69 -25 41 5 -50 14 -42 33 -85
42 -94 10 -9 17 -19 17 -22 0 -3 23 -28 50 -55 28 -27 38 -39 23 -26 -15 12
-38 28 -50 34 -13 6 -39 33 -58 58 -19 26 -36 45 -38 43 -6 -6 54 -88 92 -124
19 -19 32 -39 29 -44 -4 -6 -1 -7 6 -2 8 4 26 -5 47 -26 41 -39 42 -45 9 -53
-14 -4 -25 -12 -25 -19 0 -8 -4 -7 -11 3 -8 12 -12 12 -16 2 -4 -10 -8 -10
-19 -1 -11 9 -14 7 -14 -10 0 -26 0 -26 -143 29 -132 52 -162 73 -174 126 -7
31 -6 53 3 81 8 21 14 49 15 63 1 14 5 -6 10 -43 5 -37 18 -85 30 -105 11 -20
18 -29 15 -20 -3 10 -10 55 -17 102 -11 77 -10 89 11 157 40 133 107 238 202
316 55 45 74 53 64 28z m886 -43 c-24 -33 -117 -122 -154 -146 -47 -31 -120
-45 -154 -30 -28 12 -28 12 26 13 82 2 151 38 229 121 36 38 67 69 69 69 2 1
-5 -11 -16 -27z m34 -257 c-20 -38 -38 -90 -41 -115 l-5 -45 15 54 c15 54 55
134 63 127 2 -3 -8 -60 -22 -128 -30 -145 -41 -230 -57 -433 -6 -82 -12 -151
-13 -152 -1 -2 -2 151 -1 340 2 368 4 383 58 502 l32 70 3 -75 c3 -69 0 -81
-32 -145z m-464 133 c-6 -24 -8 -21 -16 22 -6 31 -5 32 7 15 8 -10 12 -27 9
-37z m-255 -45 c-3 -10 -5 -4 -5 12 0 17 2 24 5 18 2 -7 2 -21 0 -30z m-10
-230 c-2 -32 -3 -6 -3 57 0 63 1 89 3 58 2 -32 2 -84 0 -115z m2303 157 c0 -5
-4 -10 -10 -10 -5 0 -10 5 -10 10 0 6 5 10 10 10 6 0 10 -4 10 -10z m-3520
-210 c26 -18 28 -26 35 -115 8 -104 1 -125 -40 -125 -29 0 -52 27 -76 89 -46
123 0 209 81 151z m1157 -102 c-3 -8 -6 -5 -6 6 -1 11 2 17 5 13 3 -3 4 -12 1
-19z m-1228 -114 c17 -29 19 -34 5 -23 -21 17 -54 87 -53 114 0 12 5 5 13 -17
7 -20 23 -53 35 -74z m741 97 c0 -5 -7 -12 -16 -15 -14 -5 -15 -4 -4 9 14 17
20 19 20 6z m-33 -63 c-3 -7 -5 -2 -5 12 0 14 2 19 5 13 2 -7 2 -19 0 -25z
m1606 -21 c15 -28 19 -41 10 -28 -47 66 -46 65 -81 47 -17 -9 -35 -16 -39 -16
-8 1 68 50 77 50 3 0 17 -24 33 -53z m-1482 14 c36 -16 109 -44 164 -61 118
-38 173 -62 204 -91 26 -24 22 -36 -7 -20 -44 24 -213 80 -288 96 -109 23
-133 33 -149 66 -8 15 -15 30 -15 34 0 11 30 4 91 -24z m493 -47 c36 -6 50
-24 21 -24 -20 0 -85 27 -85 36 0 3 6 4 14 1 8 -3 31 -9 50 -13z m-449 -39
c124 -32 163 -63 48 -38 -41 8 -106 13 -161 11 -50 -2 -92 0 -92 5 0 4 10 17
21 28 18 18 29 21 73 15 28 -3 78 -13 111 -21z m468 -2 c15 -3 27 -12 27 -19
0 -17 -1 -17 -50 2 -22 9 -40 21 -40 26 0 6 8 7 18 3 9 -3 29 -9 45 -12z m66
-35 c17 -92 24 -164 13 -153 -8 8 -32 153 -32 193 0 28 9 8 19 -40z m1662 2
c4 -19 13 -82 19 -140 6 -58 13 -117 16 -131 5 -26 3 -27 -51 -31 -42 -4 -62
-11 -81 -29 -13 -14 -64 -101 -112 -194 l-87 -170 -75 -11 c-41 -7 -63 -12
-47 -13 15 0 27 -5 27 -10 0 -5 8 -7 18 -5 9 2 23 0 31 -5 11 -7 8 -18 -14
-60 -16 -28 -34 -51 -40 -51 -59 0 -427 99 -487 131 -16 9 -16 12 3 57 24 56
21 90 -15 163 -14 28 -26 52 -26 53 0 2 42 6 93 10 50 3 128 16 172 27 202 51
234 58 295 64 43 4 83 1 118 -8 40 -11 52 -11 52 -2 0 26 -58 38 -160 33
l-100 -5 -19 31 c-10 17 -26 52 -36 79 -17 46 -17 48 1 68 43 48 232 142 346
174 29 8 75 13 103 12 48 -2 49 -3 56 -37z m-3133 12 c2 -7 -3 -12 -12 -12 -9
0 -16 7 -16 16 0 17 22 14 28 -4z m242 1 c0 -37 31 -415 45 -558 17 -169 30
-248 51 -319 19 -65 18 -73 -6 -51 -26 24 -47 91 -64 210 -18 119 -43 395 -51
555 -3 63 -8 130 -11 148 -4 27 -2 32 16 32 12 0 20 -7 20 -17z m1013 10 c-7
-2 -19 -2 -25 0 -7 3 -2 5 12 5 14 0 19 -2 13 -5z m-946 -35 c-3 -8 -6 -5 -6
6 -1 11 2 17 5 13 3 -3 4 -12 1 -19z m723 -30 c68 -25 188 -100 197 -123 13
-36 -74 -200 -150 -283 -20 -22 -21 -22 -41 -3 -39 35 -84 51 -143 50 l-58 0
57 -18 c73 -24 119 -53 152 -96 15 -19 32 -34 38 -32 7 1 12 -4 13 -11 0 -8
11 -20 25 -28 l25 -14 -30 6 c-16 3 -74 21 -127 39 -54 18 -98 31 -98 29 0 -2
23 -15 51 -29 64 -33 166 -59 291 -76 l97 -12 -1 -72 c0 -39 3 -85 7 -103 l7
-32 -114 -1 c-62 -1 -105 -3 -95 -6 9 -2 17 -11 17 -19 0 -8 10 -19 23 -25 15
-7 -10 -8 -88 -5 -158 7 -386 67 -427 113 -29 32 -52 140 -51 238 1 77 8 117
52 268 53 184 73 240 94 265 19 23 194 11 277 -20z m-1438 -30 c-8 -8 -9 -4
-5 13 4 13 8 18 11 10 2 -7 -1 -18 -6 -23z m48 -16 c0 -26 -25 -5 -28 24 -2
28 -2 28 13 10 8 -11 15 -26 15 -34z m677 11 c-3 -10 -5 -4 -5 12 0 17 2 24 5
18 2 -7 2 -21 0 -30z m3351 8 c3 -8 -1 -12 -9 -9 -7 2 -15 10 -17 17 -3 8 1
12 9 9 7 -2 15 -10 17 -17z m270 -22 c-2 -6 -8 -10 -13 -10 -5 0 -11 4 -13 10
-2 6 4 11 13 11 9 0 15 -5 13 -11z m-4334 -20 c-3 -5 -10 -7 -15 -3 -5 3 -7
10 -3 15 3 5 10 7 15 3 5 -3 7 -10 3 -15z m1913 -1 c-3 -8 -6 -5 -6 6 -1 11 2
17 5 13 3 -3 4 -12 1 -19z m-1179 -103 c0 -22 -3 -18 -9 15 -4 25 -7 59 -7 75
0 22 3 18 9 -15 4 -25 7 -58 7 -75z m-650 68 c8 -32 142 -489 158 -541 5 -15
4 -15 -5 -2 -5 9 -46 136 -90 282 -45 146 -84 273 -87 282 -3 9 -2 16 4 16 5
0 14 -17 20 -37z m-33 -19 c10 -66 -8 -77 -31 -19 -15 40 -15 48 -3 56 23 15
26 11 34 -37z m3632 -76 c-2 -24 -4 -7 -4 37 0 44 2 63 4 43 2 -21 2 -57 0
-80z m-1535 12 c19 -78 21 -90 9 -90 -5 0 -14 21 -20 46 -11 45 -13 46 -44 41
-18 -3 -76 -9 -129 -13 -54 -3 -98 -9 -98 -13 0 -3 9 -33 19 -66 23 -76 34
-132 23 -120 -13 15 -86 254 -80 260 9 9 158 23 233 21 l70 -1 17 -65z m2291
33 c-7 -2 -21 -2 -30 0 -10 3 -4 5 12 5 17 0 24 -2 18 -5z m-80 -10 c-7 -2
-19 -2 -25 0 -7 3 -2 5 12 5 14 0 19 -2 13 -5z m-80 -10 c-7 -2 -19 -2 -25 0
-7 3 -2 5 12 5 14 0 19 -2 13 -5z m227 -27 c0 -31 -57 -194 -127 -366 -30 -74
-91 -231 -134 -348 -43 -117 -83 -221 -89 -231 -10 -20 0 -18 -415 -97 -424
-80 -754 -134 -824 -134 -60 0 -518 55 -554 66 -24 8 -3 34 27 33 20 0 20 -1
1 -8 -25 -10 -4 -14 250 -41 216 -23 355 -31 355 -20 0 4 19 10 43 14 82 13
117 26 117 44 0 11 -3 13 -8 6 -4 -6 -44 -18 -89 -26 -67 -12 -83 -12 -83 -2
0 9 6 11 18 7 15 -6 15 -4 4 9 -11 14 -10 16 7 11 12 -3 21 -1 21 4 0 5 6 10
13 11 78 7 185 26 194 36 15 15 -11 15 -107 1 -57 -9 -113 -16 -126 -17 -16
-2 -28 -14 -40 -40 -9 -21 -23 -38 -29 -38 -9 0 -8 9 4 34 9 18 19 32 24 29 4
-2 7 8 7 22 0 24 118 263 229 463 26 48 85 159 131 247 125 243 119 234 159
245 20 5 196 25 391 45 195 20 400 42 455 49 160 21 175 20 175 -8z m-4493 -8
c-3 -8 -6 -5 -6 6 -1 11 2 17 5 13 3 -3 4 -12 1 -19z m2390 0 c-3 -8 -6 -5 -6
6 -1 11 2 17 5 13 3 -3 4 -12 1 -19z m-2012 -22 c-4 -20 -2 -36 4 -40 6 -4 11
-17 11 -29 0 -18 2 -19 11 -7 8 11 9 8 5 -15 -13 -69 -36 -190 -36 -193 0 -2
-5 0 -11 4 -9 5 -10 -1 -5 -22 5 -23 4 -26 -4 -14 -9 12 -11 9 -7 -13 2 -15 2
-25 -1 -22 -4 3 -12 -11 -19 -32 l-12 -38 6 35 c3 19 19 78 35 130 32 101 40
196 18 210 -9 5 -11 19 -6 44 4 20 9 36 12 36 3 0 2 -15 -1 -34z m352 -43 c-2
-16 -4 -5 -4 22 0 28 2 40 4 28 2 -13 2 -35 0 -50z m-683 -49 c5 -33 3 -43
-10 -48 -9 -4 -19 -4 -22 -1 -9 9 -21 116 -15 132 9 22 39 -33 47 -83z m3594
79 c-10 -2 -28 -2 -40 0 -13 2 -5 4 17 4 22 1 32 -1 23 -4z m-1948 -170 c5
-69 10 -128 10 -129 0 -2 -11 -4 -25 -4 l-25 0 0 104 c0 57 3 125 7 151 9 72
20 31 33 -122z m597 74 c37 -19 92 -42 121 -52 65 -21 82 -45 89 -125 11 -115
-42 -173 -137 -151 -35 8 -140 57 -140 66 0 2 14 12 31 21 44 22 23 39 -24 19
-20 -8 -50 -15 -67 -15 -17 0 -30 -5 -30 -12 -1 -25 -49 -68 -76 -68 -24 0
-26 3 -19 28 17 70 43 110 96 145 30 20 70 52 89 72 l35 37 -65 -45 c-36 -24
-80 -52 -98 -61 -21 -11 -50 -43 -78 -87 -46 -70 -57 -79 -71 -56 -12 19 -3
57 28 120 23 44 41 64 76 85 25 15 58 37 72 49 25 22 25 22 4 23 -12 0 -25 -5
-28 -10 -4 -6 -28 -21 -55 -35 -34 -17 -60 -41 -87 -80 -27 -39 -45 -55 -60
-55 -32 0 -29 21 14 86 61 92 216 168 290 143 11 -4 52 -23 90 -42z m-1507
-257 c11 -47 22 -96 25 -110 3 -14 -1 -8 -10 14 -20 52 -52 224 -59 316 -4 65
-3 62 10 -30 8 -57 23 -143 34 -190z m-672 207 c6 -23 10 -49 9 -57 -1 -8 18
-75 42 -148 37 -116 45 -160 26 -140 -3 3 -28 78 -56 168 -27 90 -54 172 -60
182 -5 10 -7 18 -4 18 3 0 15 -19 25 -42 11 -24 20 -37 20 -30 0 7 -9 30 -20
52 -24 47 -24 51 -6 44 8 -3 19 -24 24 -47z m-101 -49 c-2 -13 -4 -5 -4 17 -1
22 1 32 4 23 2 -10 2 -28 0 -40z m2540 32 c17 0 29 -14 52 -64 17 -35 31 -67
31 -70 0 -3 -22 -6 -49 -6 l-49 0 -11 47 c-7 25 -19 59 -28 76 -15 29 -15 30
9 24 12 -4 33 -7 45 -7z m-2693 -109 c4 -5 -3 -7 -14 -4 -23 6 -26 13 -6 13 8
0 17 -4 20 -9z m620 0 c4 -5 2 -21 -4 -36 -8 -21 -16 -26 -37 -23 -22 2 -29
10 -34 36 -6 32 -6 32 32 32 21 0 40 -4 43 -9z m1181 -46 c39 -7 58 -14 44
-14 -36 -1 -141 19 -159 31 -11 6 -6 7 15 3 17 -4 62 -13 100 -20z m-1825 0
c10 -12 10 -15 -4 -15 -9 0 -16 7 -16 15 0 8 2 15 4 15 2 0 9 -7 16 -15z
m1923 -33 c-3 -21 0 -55 5 -75 6 -20 7 -39 2 -42 -16 -10 -29 133 -13 148 11
11 11 9 6 -31z m820 31 c-7 -2 -21 -2 -30 0 -10 3 -4 5 12 5 17 0 24 -2 18 -5z
m50 -10 c-7 -2 -19 -2 -25 0 -7 3 -2 5 12 5 14 0 19 -2 13 -5z m-2610 -34 c55
-16 72 -26 87 -52 28 -45 25 -57 -3 -16 -18 28 -36 38 -97 57 -90 28 -131 45
-85 37 17 -4 61 -15 98 -26z m86 3 c11 -21 11 -22 -7 -11 -11 7 -18 19 -15 26
6 16 6 16 22 -15z m302 -35 c23 -6 25 -23 3 -31 -26 -10 -34 2 -33 47 1 28 3
33 6 16 2 -16 12 -29 24 -32z m-421 8 l65 -13 -50 -1 c-47 -1 -160 20 -171 32
-7 7 78 -3 156 -18z m472 -2 c-3 -16 -7 -22 -10 -15 -4 13 4 42 11 42 2 0 2
-12 -1 -27z m1275 -35 c-2 -13 -4 -3 -4 22 0 25 2 35 4 23 2 -13 2 -33 0 -45z
m-1427 -25 c-11 -17 -11 -17 -6 0 3 10 6 24 7 30 0 9 2 9 5 0 3 -7 0 -20 -6
-30z m1849 6 c-5 -10 -20 -19 -32 -20 -12 0 -16 -3 -9 -6 6 -2 12 -12 12 -20
0 -13 -3 -13 -15 -3 -21 18 -19 46 6 64 29 20 52 11 38 -15z m-2164 -9 c3 -5
-1 -10 -10 -10 -9 0 -13 5 -10 10 3 6 8 10 10 10 2 0 7 -4 10 -10z m455 -19
c0 -11 -30 -19 -47 -14 -24 8 -13 23 17 23 17 0 30 -4 30 -9z m1334 -130 c9
-24 15 -46 13 -48 -7 -7 -47 109 -52 150 -5 42 -5 41 9 -8 8 -27 22 -70 30
-94z m-1317 75 c-1 -24 -5 -42 -9 -39 -5 2 -8 -15 -8 -39 0 -24 -7 -90 -15
-148 -14 -96 -17 -107 -46 -133 -17 -16 -29 -30 -27 -31 1 -2 23 -1 48 3 43 6
45 8 42 36 -1 17 3 39 11 49 13 18 22 17 283 -8 148 -14 357 -33 464 -41 274
-22 297 -27 230 -52 -35 -13 -38 -28 -10 -43 24 -13 231 -48 530 -90 228 -33
295 -48 210 -50 -37 -1 -101 -17 -79 -19 4 -1 31 -6 60 -11 79 -15 802 -100
852 -100 41 0 344 45 647 96 240 41 424 81 461 100 l34 18 -25 6 c-22 6 -23 8
-7 15 23 10 86 -9 121 -36 52 -41 27 -73 -79 -104 -67 -19 -73 -22 -176 -84
-136 -82 -333 -152 -531 -186 -126 -23 -306 -19 -503 10 -93 14 -271 34 -395
45 -324 29 -453 47 -444 62 7 11 54 11 54 -1 0 -7 139 -24 300 -36 42 -3 48
-2 25 4 l-30 9 32 1 c17 0 33 -4 35 -10 2 -7 47 -15 108 -20 58 -5 186 -21
285 -35 323 -47 514 -35 774 48 98 31 281 112 323 143 23 17 23 17 -12 11
-103 -20 -619 -89 -784 -106 -397 -40 -443 -39 -1156 31 -153 14 -399 59 -440
79 -59 29 -169 62 -181 54 -8 -5 -9 -3 -4 5 11 20 191 2 495 -49 181 -30 727
-100 782 -100 72 0 7 11 -267 45 -160 20 -411 56 -560 80 -148 25 -331 52
-405 60 -74 9 -166 20 -204 26 -38 5 -85 7 -105 4 -20 -2 22 10 92 29 125 33
159 46 122 46 -25 0 -280 -61 -526 -126 -132 -34 -227 -54 -262 -54 -49 0
-615 65 -642 74 -5 2 13 8 40 14 28 6 140 32 250 57 285 65 566 117 594 110
38 -10 12 -20 -110 -46 -76 -15 -106 -26 -102 -35 5 -13 -4 -17 -92 -35 -52
-11 -57 -13 -35 -20 19 -7 16 -7 -12 -3 -21 3 -73 -5 -125 -18 l-88 -23 94
-14 c90 -13 100 -13 180 7 385 96 547 132 588 131 53 -1 109 15 83 24 -8 3
-96 15 -195 27 -99 12 -182 23 -186 25 -9 6 -279 -43 -552 -100 -293 -61 -347
-74 -363 -87 -6 -4 -65 -5 -130 -2 -96 5 -117 4 -107 -6 13 -15 747 -109 858
-111 77 -1 93 2 310 61 82 22 151 40 153 40 1 0 -13 -14 -33 -31 -19 -17 -35
-36 -35 -43 0 -12 -170 -69 -264 -88 -85 -17 -258 3 -450 52 -87 21 -172 39
-190 39 -46 -1 -321 40 -363 54 -46 15 -64 41 -43 61 17 17 213 65 410 101 76
14 141 25 145 25 3 0 4 4 1 9 -3 5 -31 12 -61 16 -71 8 -79 21 -94 155 -17
153 -21 169 -41 175 -14 4 -18 15 -17 40 2 27 5 34 17 28 8 -4 94 -8 190 -10
130 -3 188 0 225 10 28 8 53 15 57 16 3 0 6 -19 5 -43z m438 15 c3 -5 0 -13
-6 -17 -8 -4 -9 -3 -5 4 10 17 -29 15 -42 -1 -6 -7 -12 -33 -14 -57 -4 -55
-22 -59 -26 -7 -4 52 19 87 58 87 16 0 31 -4 35 -9z m-418 -48 c-3 -10 -5 -4
-5 12 0 17 2 24 5 18 2 -7 2 -21 0 -30z m-10 -135 c-2 -18 -4 -4 -4 32 0 36 2
50 4 33 2 -18 2 -48 0 -65z m-530 20 c-2 -13 -4 -5 -4 17 -1 22 1 32 4 23 2
-10 2 -28 0 -40z m2143 -53 c280 -27 284 -30 89 -69 l-126 -25 -219 25 c-120
13 -237 22 -259 19 -29 -3 -35 -2 -20 4 19 9 18 10 -5 11 l-25 1 24 10 c27 11
190 37 261 42 50 4 46 4 280 -18z m850 -21 c47 -8 86 -17 88 -19 2 -2 -3 -16
-12 -33 -15 -28 -17 -29 -118 -35 -57 -4 -191 -18 -298 -32 -107 -14 -210 -25
-227 -25 l-33 0 0 54 0 55 58 12 c31 6 95 20 142 30 100 22 262 19 400 -7z
m-2440 -20 c0 -2 -9 -4 -20 -4 -11 0 -20 4 -20 9 0 5 9 7 20 4 11 -3 20 -7 20
-9z m-543 -36 c-3 -7 -5 -2 -5 12 0 14 2 19 5 13 2 -7 2 -19 0 -25z m1686 15
c-7 -2 -19 -2 -25 0 -7 3 -2 5 12 5 14 0 19 -2 13 -5z m80 -10 c-7 -2 -19 -2
-25 0 -7 3 -2 5 12 5 14 0 19 -2 13 -5z m90 -10 c-7 -2 -21 -2 -30 0 -10 3 -4
5 12 5 17 0 24 -2 18 -5z m507 -63 c0 -64 -2 -70 -22 -75 -64 -14 -291 -45
-299 -40 -12 8 -11 48 3 82 6 15 12 32 12 37 1 5 8 11 16 13 13 4 13 3 0 -7
-12 -10 -10 -11 10 -5 14 3 75 19 135 35 155 40 145 43 145 -40z m-417 53 c-7
-2 -21 -2 -30 0 -10 3 -4 5 12 5 17 0 24 -2 18 -5z m90 -10 c-7 -2 -21 -2 -30
0 -10 3 -4 5 12 5 17 0 24 -2 18 -5z m-2014 -60 c-1 -19 -3 -22 -6 -10 -4 16
-12 18 -51 14 l-47 -6 40 14 c58 20 65 18 64 -12z m1926 -3 c21 -8 26 -16 23
-38 -3 -23 -8 -27 -41 -30 -31 -3 -39 0 -46 20 -10 27 3 58 24 58 7 0 26 -5
40 -10z m1014 -26 c18 -3 31 -8 28 -10 -3 -3 -54 -12 -113 -19 -60 -8 -174
-25 -254 -40 -80 -14 -188 -29 -240 -34 -52 -4 -84 -9 -70 -10 32 -2 57 -17
46 -28 -5 -4 -11 -3 -13 4 -3 7 -16 10 -37 6 -33 -5 -205 12 -214 22 -3 3 -1
9 4 14 11 11 340 67 484 82 58 6 128 15 155 19 49 7 157 4 224 -6z m-2002 0
c-3 -3 -12 -4 -19 -1 -8 3 -5 6 6 6 11 1 17 -2 13 -5z m86 -11 c-7 -2 -21 -2
-30 0 -10 3 -4 5 12 5 17 0 24 -2 18 -5z m-120 -10 c-7 -2 -19 -2 -25 0 -7 3
-2 5 12 5 14 0 19 -2 13 -5z m70 -10 c-7 -2 -21 -2 -30 0 -10 3 -4 5 12 5 17
0 24 -2 18 -5z m-46 -19 c-3 -3 -12 -4 -19 -1 -8 3 -5 6 6 6 11 1 17 -2 13 -5z
m1986 -1 c-7 -2 -19 -2 -25 0 -7 3 -2 5 12 5 14 0 19 -2 13 -5z m-2146 -9 c-3
-3 -12 -4 -19 -1 -8 3 -5 6 6 6 11 1 17 -2 13 -5z m2080 0 c-3 -3 -12 -4 -19
-1 -8 3 -5 6 6 6 11 1 17 -2 13 -5z m-2109 -21 c-10 -2 -28 -2 -40 0 -13 2 -5
4 17 4 22 1 32 -1 23 -4z m2037 -2 c-12 -11 -151 -31 -203 -30 -49 2 -24 8
100 24 57 7 105 13 108 14 2 0 0 -3 -5 -8z m158 2 c-13 -2 -33 -2 -45 0 -13 2
-3 4 22 4 25 0 35 -2 23 -4z m-110 -10 c-7 -2 -19 -2 -25 0 -7 3 -2 5 12 5 14
0 19 -2 13 -5z m-2115 -10 c-10 -2 -26 -2 -35 0 -10 3 -2 5 17 5 19 0 27 -2
18 -5z m2205 -10 c-13 -2 -35 -2 -50 0 -16 2 -5 4 22 4 28 0 40 -2 28 -4z
m-188 -13 c-3 -5 -18 -10 -33 -9 -24 0 -25 1 -7 9 28 12 47 12 40 0z m188 -17
c-6 -14 -46 -16 -108 -6 -52 8 -24 18 53 18 44 0 58 -3 55 -12z m-2320 0 c-7
-2 -19 -2 -25 0 -7 3 -2 5 12 5 14 0 19 -2 13 -5z m735 -39 l62 -7 -67 -23
c-36 -13 -69 -28 -73 -34 -4 -7 -36 -7 -106 1 -121 14 -131 16 -117 30 34 34
158 48 301 33z m-25 -81 c-7 -2 -19 -2 -25 0 -7 3 -2 5 12 5 14 0 19 -2 13 -5z
m295 -14 c12 -5 22 -13 22 -19 0 -10 -13 -14 -83 -25 -34 -5 -62 1 -212 50 -5
2 -1 4 10 4 11 0 51 -10 90 -24 97 -34 196 -19 128 20 -27 15 -27 15 -3 9 14
-4 35 -10 48 -15z m-1586 -15 c87 -2 165 -7 175 -12 10 -5 41 -13 68 -16 28
-4 102 -24 165 -44 105 -33 126 -36 235 -36 99 0 140 5 235 28 63 16 109 31
102 33 -6 3 -10 9 -6 14 3 5 -3 8 -13 7 -10 0 -36 0 -58 1 l-40 3 39 9 c29 7
62 4 130 -10 148 -32 223 -43 366 -51 l135 -8 -145 3 c-80 2 -185 9 -235 15
-88 13 -93 12 -217 -19 -252 -63 -345 -63 -539 -2 -113 35 -262 61 -353 61
-85 0 -251 18 -279 31 -16 7 -8 8 28 3 28 -4 121 -8 207 -10z m1731 -24 c11 0
17 -3 13 -7 -4 -4 -28 -6 -54 -5 -35 1 -42 -1 -27 -8 11 -5 34 -9 52 -9 17 -1
35 -5 38 -11 9 -14 -14 -12 -70 5 -27 8 -53 11 -59 8 -6 -4 -2 4 9 16 15 17
26 21 49 17 15 -3 38 -6 49 -6z m-895 -13 c-16 -6 -28 -14 -28 -19 0 -4 -7 -5
-15 -2 -8 4 -15 2 -15 -4 0 -5 -14 -12 -30 -14 -55 -8 -41 5 27 28 71 23 108
30 61 11z m969 -3 c-3 -3 -12 -4 -19 -1 -8 3 -5 6 6 6 11 1 17 -2 13 -5z
m-1209 -41 c-10 -2 -28 -2 -40 0 -13 2 -5 4 17 4 22 1 32 -1 23 -4z m84 -4
c-15 -6 -30 -5 -40 1 -13 7 -8 9 23 9 35 0 37 -1 17 -10z m1741 -26 c-7 -2
-21 -2 -30 0 -10 3 -4 5 12 5 17 0 24 -2 18 -5z m-297 -24 c14 -24 -15 -31
-90 -24 -56 5 -76 11 -76 21 0 11 18 14 79 14 47 0 83 -5 87 -11z m521 5 c-3
-3 -12 -4 -19 -1 -8 3 -5 6 6 6 11 1 17 -2 13 -5z"/>
<path d="M499 3383 c-12 -16 -12 -17 1 -7 8 6 22 14 30 17 13 5 12 6 -1 6 -9
1 -23 -7 -30 -16z"/>
<path d="M4036 3224 c-32 -31 -10 -94 33 -94 23 0 51 31 51 57 0 23 -29 53
-53 53 -8 0 -23 -7 -31 -16z"/>
<path d="M4530 1960 c0 -19 4 -21 33 -15 17 4 39 11 47 16 13 7 13 8 -1 9 -9
0 -31 3 -48 6 -27 6 -31 4 -31 -16z"/>
<path d="M2650 4376 c0 -2 7 -7 16 -10 8 -3 12 -2 9 4 -6 10 -25 14 -25 6z"/>
<path d="M792 3764 c-29 -20 -30 -68 -1 -87 51 -37 114 38 70 82 -25 25 -39
26 -69 5z"/>
<path d="M2851 3364 c0 -11 3 -14 6 -6 3 7 2 16 -1 19 -3 4 -6 -2 -5 -13z"/>
<path d="M2841 3324 c0 -11 3 -14 6 -6 3 7 2 16 -1 19 -3 4 -6 -2 -5 -13z"/>
<path d="M3021 3314 c0 -11 3 -14 6 -6 3 7 2 16 -1 19 -3 4 -6 -2 -5 -13z"/>
<path d="M2729 3123 c-13 -16 -12 -17 4 -4 16 13 21 21 13 21 -2 0 -10 -8 -17
-17z"/>
<path d="M2414 3676 c22 -18 54 -20 76 -6 12 7 8 10 -15 10 -16 0 -41 3 -55 6
-24 5 -24 5 -6 -10z"/>
<path d="M3319 3133 c-13 -16 -12 -17 4 -4 16 13 21 21 13 21 -2 0 -10 -8 -17
-17z"/>
<path d="M2073 2800 c0 -25 2 -35 4 -22 2 12 2 32 0 45 -2 12 -4 2 -4 -23z"/>
<path d="M3801 2874 c0 -11 3 -14 6 -6 3 7 2 16 -1 19 -3 4 -6 -2 -5 -13z"/>
<path d="M3809 2710 c-5 -173 -10 -185 -138 -321 -44 -48 -77 -90 -73 -94 4
-3 3 -5 -3 -3 -10 3 -75 -41 -75 -51 0 -3 25 -4 55 -3 30 2 55 8 55 14 0 5 5
6 10 3 6 -3 10 0 10 8 0 8 7 18 16 21 12 5 14 3 8 -7 -5 -7 1 -1 14 13 12 14
28 24 35 22 6 -2 9 0 5 4 -5 4 4 23 19 42 15 20 20 32 13 27 -7 -5 -2 7 13 26
55 73 72 126 70 224 -1 50 -8 119 -16 155 l-14 65 -4 -145z"/>
<path d="M3880 2379 c-54 -15 -141 -51 -136 -56 3 -3 47 9 98 25 51 17 102 33
113 35 13 3 9 5 -10 5 -16 0 -46 -4 -65 -9z"/>
<path d="M2010 2340 c0 -5 5 -10 11 -10 5 0 7 5 4 10 -3 6 -8 10 -11 10 -2 0
-4 -4 -4 -10z"/>
<path d="M2030 2280 c0 -5 5 -10 11 -10 5 0 7 5 4 10 -3 6 -8 10 -11 10 -2 0
-4 -4 -4 -10z"/>
<path d="M2922 2490 c0 -14 2 -19 5 -12 2 6 2 18 0 25 -3 6 -5 1 -5 -13z"/>
<path d="M3855 2150 c-3 -5 1 -10 9 -10 9 0 16 5 16 10 0 6 -4 10 -9 10 -6 0
-13 -4 -16 -10z"/>
<path d="M3908 2153 c7 -3 16 -2 19 1 4 3 -2 6 -13 5 -11 0 -14 -3 -6 -6z"/>
<path d="M3820 2140 c0 -5 5 -10 10 -10 6 0 10 5 10 10 0 6 -4 10 -10 10 -5 0
-10 -4 -10 -10z"/>
<path d="M3684 2090 c-32 -17 -66 -38 -74 -47 -11 -11 94 37 139 65 2 1 2 4
-1 7 -3 3 -32 -8 -64 -25z"/>
<path d="M3809 1703 c-13 -16 -12 -17 4 -4 9 7 17 15 17 17 0 8 -8 3 -21 -13z"/>
<path d="M2540 1994 c-8 -1 -54 -6 -102 -9 -62 -5 -88 -11 -92 -21 -4 -11 -1
-12 12 -5 10 5 73 13 140 17 67 4 119 11 116 15 -5 9 -43 10 -74 3z"/>
<path d="M3959 1793 c-13 -16 -12 -17 4 -4 9 7 17 15 17 17 0 8 -8 3 -21 -13z"/>
<path d="M3890 1660 c0 -5 5 -10 11 -10 5 0 7 5 4 10 -3 6 -8 10 -11 10 -2 0
-4 -4 -4 -10z"/>
<path d="M3784 1308 l-19 -23 23 19 c12 11 22 21 22 23 0 8 -8 2 -26 -19z"/>
<path d="M2480 1556 c0 -2 7 -9 15 -16 13 -11 14 -10 9 4 -5 14 -24 23 -24 12z"/>
<path d="M2370 956 c0 -11 9 -16 26 -16 31 0 28 23 -4 28 -15 2 -22 -2 -22
-12z"/>
<path d="M3128 943 c6 -2 18 -2 25 0 6 3 1 5 -13 5 -14 0 -19 -2 -12 -5z"/>
<path d="M3198 933 c6 -2 18 -2 25 0 6 3 1 5 -13 5 -14 0 -19 -2 -12 -5z"/>
</g>
</svg>