<svg xmlns="http://www.w3.org/2000/svg" width="800" height="450" viewBox="0 0 800 450">
  <defs><linearGradient id="g" x1="0%" y1="0%" x2="100%" y2="100%"><stop offset="0%" style="stop-color:#021a1a"/><stop offset="100%" style="stop-color:#052d2d"/></linearGradient></defs>
  <rect width="800" height="450" fill="url(#g)"/>
  <rect x="190" y="105" width="420" height="220" rx="10" fill="rgba(20,184,166,0.06)" stroke="rgba(20,184,166,0.2)" stroke-width="1.5"/>
  <rect x="190" y="105" width="420" height="36" rx="10" fill="rgba(20,184,166,0.15)"/>
  <text x="400" y="129" text-anchor="middle" font-family="Arial,sans-serif" font-size="13" fill="#5eead4">Student Information</text>
  <rect x="205" y="155" width="60" height="12" rx="2" fill="rgba(20,184,166,0.3)"/>
  <rect x="285" y="155" width="100" height="12" rx="2" fill="rgba(20,184,166,0.3)"/>
  <rect x="405" y="155" width="80" height="12" rx="2" fill="rgba(20,184,166,0.3)"/>
  <rect x="205" y="178" width="60" height="10" rx="2" fill="rgba(20,184,166,0.12)"/>
  <rect x="285" y="178" width="100" height="10" rx="2" fill="rgba(20,184,166,0.12)"/>
  <rect x="405" y="178" width="80" height="10" rx="2" fill="rgba(20,184,166,0.12)"/>
  <rect x="205" y="198" width="60" height="10" rx="2" fill="rgba(20,184,166,0.08)"/>
  <rect x="285" y="198" width="100" height="10" rx="2" fill="rgba(20,184,166,0.08)"/>
  <rect x="405" y="198" width="80" height="10" rx="2" fill="rgba(20,184,166,0.08)"/>
  <rect x="205" y="218" width="60" height="10" rx="2" fill="rgba(20,184,166,0.1)"/>
  <rect x="285" y="218" width="100" height="10" rx="2" fill="rgba(20,184,166,0.1)"/>
  <rect x="405" y="218" width="80" height="10" rx="2" fill="rgba(20,184,166,0.1)"/>
  <text x="400" y="365" text-anchor="middle" font-family="Arial,sans-serif" font-size="20" font-weight="bold" fill="#e2e8f0">Student Info Dashboard</text>
  <text x="400" y="390" text-anchor="middle" font-family="Arial,sans-serif" font-size="12" fill="#14b8a6">JavaScript · HTML · CSS</text>
</svg>